<?xml version="1.0" encoding="utf-8"?>
<!-- Generator: Adobe Illustrator 23.0.5, SVG Export Plug-In . SVG Version: 6.00 Build 0)  -->
<svg version="1.1" id="Capa_1" xmlns="http://www.w3.org/2000/svg" xmlns:xlink="http://www.w3.org/1999/xlink" x="0px" y="0px"
	 viewBox="0 0 64.1 64.1" style="enable-background:new 0 0 64.1 64.1;" xml:space="preserve">
<style type="text/css">
	.st0{fill:#FFFFFF;}
</style>
<rect y="0" class="st0" width="64.1" height="64.1"/>
<g>
	<path d="M59.2,23.7C52,16.5,42.3,12.5,32.1,12.5s-19.9,4-27.2,11.2c-0.4,0.4-0.4,1,0,1.4s1,0.4,1.4,0c6.9-6.9,16-10.6,25.7-10.6
		s18.9,3.8,25.7,10.6c0.2,0.2,0.5,0.3,0.7,0.3s0.5-0.1,0.7-0.3C59.6,24.8,59.6,24.1,59.2,23.7z"/>
	<path d="M10.8,29.6c-0.4,0.4-0.4,1,0,1.4c0.2,0.2,0.5,0.3,0.7,0.3c0.3,0,0.5-0.1,0.7-0.3c11-11,28.8-11,39.7,0c0.4,0.4,1,0.4,1.4,0
		s0.4-1,0-1.4C41.6,17.9,22.5,17.9,10.8,29.6z"/>
	<path d="M32.1,29.1c-5.8,0-11.3,2.3-15.4,6.4c-0.4,0.4-0.4,1,0,1.4s1,0.4,1.4,0c3.7-3.7,8.7-5.8,14-5.8s10.3,2.1,14,5.8
		c0.2,0.2,0.5,0.3,0.7,0.3s0.5-0.1,0.7-0.3c0.4-0.4,0.4-1,0-1.4C43.4,31.4,37.9,29.1,32.1,29.1z"/>
	<path d="M32.1,38.5c-3.6,0-6.6,2.9-6.6,6.6s2.9,6.6,6.6,6.6c3.6,0,6.6-2.9,6.6-6.6S35.7,38.5,32.1,38.5z M32.1,49.6
		c-2.5,0-4.6-2-4.6-4.6s2-4.6,4.6-4.6c2.5,0,4.6,2,4.6,4.6S34.6,49.6,32.1,49.6z"/>
</g>
</svg>
